<svg xmlns="http://www.w3.org/2000/svg" version="1.1" xmlns:xlink="http://www.w3.org/1999/xlink" xmlns:svgjs="http://svgjs.dev/svgjs" viewBox="0 0 800 800"><g shape-rendering="crispEdges"><g><use xlink:href="#SvgjsSymbol1000" x="275" y="125" fill="hsl(286, 100%, 51%)"></use><use xlink:href="#SvgjsSymbol1001" x="275" y="125" fill="#fd59ff"></use><use xlink:href="#SvgjsSymbol1002" x="275" y="125" fill="#8e00cb"></use></g><g><use xlink:href="#SvgjsSymbol1000" x="387.5" y="287.5" fill="hsl(286, 100%, 51%)"></use><use xlink:href="#SvgjsSymbol1001" x="387.5" y="287.5" fill="#fd59ff"></use><use xlink:href="#SvgjsSymbol1002" x="387.5" y="287.5" fill="#8e00cb"></use></g><g><use xlink:href="#SvgjsSymbol1000" x="437.5" y="150" fill="hsl(286, 100%, 51%)"></use><use xlink:href="#SvgjsSymbol1001" x="437.5" y="150" fill="#fd59ff"></use><use xlink:href="#SvgjsSymbol1002" x="437.5" y="150" fill="#8e00cb"></use></g><g><use xlink:href="#SvgjsSymbol1000" x="525" y="450" fill="hsl(286, 100%, 51%)"></use><use xlink:href="#SvgjsSymbol1001" x="525" y="450" fill="#fd59ff"></use><use xlink:href="#SvgjsSymbol1002" x="525" y="450" fill="#8e00cb"></use></g><g><use xlink:href="#SvgjsSymbol1000" x="375" y="437.5" fill="hsl(286, 100%, 51%)"></use><use xlink:href="#SvgjsSymbol1001" x="375" y="437.5" fill="#fd59ff"></use><use xlink:href="#SvgjsSymbol1002" x="375" y="437.5" fill="#8e00cb"></use></g><g><use xlink:href="#SvgjsSymbol1000" x="300" y="237.5" fill="hsl(286, 100%, 51%)"></use><use xlink:href="#SvgjsSymbol1001" x="300" y="237.5" fill="#fd59ff"></use><use xlink:href="#SvgjsSymbol1002" x="300" y="237.5" fill="#8e00cb"></use></g><g><use xlink:href="#SvgjsSymbol1000" x="550" y="250" fill="hsl(286, 100%, 51%)"></use><use xlink:href="#SvgjsSymbol1001" x="550" y="250" fill="#fd59ff"></use><use xlink:href="#SvgjsSymbol1002" x="550" y="250" fill="#8e00cb"></use></g><g><use xlink:href="#SvgjsSymbol1000" x="487.5" y="612.5" fill="hsl(286, 100%, 51%)"></use><use xlink:href="#SvgjsSymbol1001" x="487.5" y="612.5" fill="#fd59ff"></use><use xlink:href="#SvgjsSymbol1002" x="487.5" y="612.5" fill="#8e00cb"></use></g><g><use xlink:href="#SvgjsSymbol1000" x="612.5" y="312.5" fill="hsl(286, 100%, 51%)"></use><use xlink:href="#SvgjsSymbol1001" x="612.5" y="312.5" fill="#fd59ff"></use><use xlink:href="#SvgjsSymbol1002" x="612.5" y="312.5" fill="#8e00cb"></use></g><g><use xlink:href="#SvgjsSymbol1000" x="500" y="337.5" fill="hsl(286, 100%, 51%)"></use><use xlink:href="#SvgjsSymbol1001" x="500" y="337.5" fill="#fd59ff"></use><use xlink:href="#SvgjsSymbol1002" x="500" y="337.5" fill="#8e00cb"></use></g><g><use xlink:href="#SvgjsSymbol1000" x="312.5" y="62.5" fill="hsl(169, 100%, 51%)"></use><use xlink:href="#SvgjsSymbol1001" x="312.5" y="62.5" fill="#6effff"></use><use xlink:href="#SvgjsSymbol1002" x="312.5" y="62.5" fill="#00cba0"></use></g><g><use xlink:href="#SvgjsSymbol1000" x="487.5" y="87.5" fill="hsl(169, 100%, 51%)"></use><use xlink:href="#SvgjsSymbol1001" x="487.5" y="87.5" fill="#6effff"></use><use xlink:href="#SvgjsSymbol1002" x="487.5" y="87.5" fill="#00cba0"></use></g><g><use xlink:href="#SvgjsSymbol1000" x="387.5" y="200" fill="hsl(169, 100%, 51%)"></use><use xlink:href="#SvgjsSymbol1001" x="387.5" y="200" fill="#6effff"></use><use xlink:href="#SvgjsSymbol1002" x="387.5" y="200" fill="#00cba0"></use></g><g><use xlink:href="#SvgjsSymbol1000" x="400" y="400" fill="hsl(169, 100%, 51%)"></use><use xlink:href="#SvgjsSymbol1001" x="400" y="400" fill="#6effff"></use><use xlink:href="#SvgjsSymbol1002" x="400" y="400" fill="#00cba0"></use></g><g><use xlink:href="#SvgjsSymbol1000" x="337.5" y="375" fill="hsl(169, 100%, 51%)"></use><use xlink:href="#SvgjsSymbol1001" x="337.5" y="375" fill="#6effff"></use><use xlink:href="#SvgjsSymbol1002" x="337.5" y="375" fill="#00cba0"></use></g><g><use xlink:href="#SvgjsSymbol1000" x="612.5" y="512.5" fill="hsl(169, 100%, 51%)"></use><use xlink:href="#SvgjsSymbol1001" x="612.5" y="512.5" fill="#6effff"></use><use xlink:href="#SvgjsSymbol1002" x="612.5" y="512.5" fill="#00cba0"></use></g><g><use xlink:href="#SvgjsSymbol1000" x="600" y="425" fill="hsl(169, 100%, 51%)"></use><use xlink:href="#SvgjsSymbol1001" x="600" y="425" fill="#6effff"></use><use xlink:href="#SvgjsSymbol1002" x="600" y="425" fill="#00cba0"></use></g><g><use xlink:href="#SvgjsSymbol1000" x="487.5" y="262.5" fill="hsl(169, 100%, 51%)"></use><use xlink:href="#SvgjsSymbol1001" x="487.5" y="262.5" fill="#6effff"></use><use xlink:href="#SvgjsSymbol1002" x="487.5" y="262.5" fill="#00cba0"></use></g><g><use xlink:href="#SvgjsSymbol1000" x="512.5" y="200" fill="hsl(169, 100%, 51%)"></use><use xlink:href="#SvgjsSymbol1001" x="512.5" y="200" fill="#6effff"></use><use xlink:href="#SvgjsSymbol1002" x="512.5" y="200" fill="#00cba0"></use></g><g><use xlink:href="#SvgjsSymbol1000" x="675" y="187.5" fill="hsl(169, 100%, 51%)"></use><use xlink:href="#SvgjsSymbol1001" x="675" y="187.5" fill="#6effff"></use><use xlink:href="#SvgjsSymbol1002" x="675" y="187.5" fill="#00cba0"></use></g><g><use xlink:href="#SvgjsSymbol1000" x="700" y="287.5" fill="hsl(169, 100%, 51%)"></use><use xlink:href="#SvgjsSymbol1001" x="700" y="287.5" fill="#6effff"></use><use xlink:href="#SvgjsSymbol1002" x="700" y="287.5" fill="#00cba0"></use></g><g><use xlink:href="#SvgjsSymbol1000" x="637.5" y="12.5" fill="hsl(169, 100%, 51%)"></use><use xlink:href="#SvgjsSymbol1001" x="637.5" y="12.5" fill="#6effff"></use><use xlink:href="#SvgjsSymbol1002" x="637.5" y="12.5" fill="#00cba0"></use></g><g><use xlink:href="#SvgjsSymbol1000" x="612.5" y="112.5" fill="hsl(169, 100%, 51%)"></use><use xlink:href="#SvgjsSymbol1001" x="612.5" y="112.5" fill="#6effff"></use><use xlink:href="#SvgjsSymbol1002" x="612.5" y="112.5" fill="#00cba0"></use></g></g><symbol id="SvgjsSymbol1000"><polygon points="0,12.5 25,0 50,12.5 25,25"></polygon></symbol><symbol id="SvgjsSymbol1001"><polygon points="0,12.5 25,25 25,50 0,37.5"></polygon></symbol><symbol id="SvgjsSymbol1002"><polygon points="25,25 50,12.5 50,37.5 25,50"></polygon></symbol><g></g></svg>